<?xml version="1.0" encoding="utf-8"?>
<!-- Generator: Adobe Illustrator 19.0.0, SVG Export Plug-In . SVG Version: 6.00 Build 0)  -->
<svg version="1.1" id="Capa_1" xmlns="http://www.w3.org/2000/svg" xmlns:xlink="http://www.w3.org/1999/xlink" x="0px" y="0px"
	 viewBox="206 -116 1024 1024" style="enable-background:new 206 -116 1024 1024;" xml:space="preserve">
<style type="text/css">
	.st0{fill:#FFFFFF;}
</style>
<g id="XMLID_164_">
	<path id="XMLID_167_" class="st0" d="M708.9-27.4C841.3-31.8,968.1,56.6,1002,178c24.7,88.4,13.1,170-37.8,246.2
		c-40.8,61.1-78.9,123.7-94.1,196.9c-7,33.9-13.3,67.6-29.7,98.6c-46.5,88-139.1,116.7-224.4,90.6c-71.5-21.8-94-97.2-86.8-154.4
		c2.1-16.5,12.2-28,31.3-26c17.8,1.9,23.3,13.3,24.1,29.9c3,64.7,17.1,88.2,58.2,99.4c52.9,14.4,110.9-8.7,141.1-55.4
		c18.3-28.4,23.8-60.6,30.4-92.8c14.7-71.2,47.3-134.4,87-194.6c24.9-37.8,49.1-75.7,54.9-123.1c12.5-100.2-37.7-194.8-129.7-238.5
		C728.3,8.1,610.2,24.1,540.4,96.7c-56.8,59.1-72,131.2-55.4,210.7c1.9,9,5.6,17.7,7.2,26.8c2.8,16.3-3.2,28.6-19.9,33
		c-15,4-26.4-2-32.5-16.3c-14.4-34-20.1-69.7-17.8-106.3C431.3,99.8,516.2,3,658.3-24.4C674.8-27.6,692-26.5,708.9-27.4z"/>
	<path id="XMLID_166_" class="st0" d="M692.1,279.1c46.6,0.1,79.1,22.6,93.9,64.3c16.3,45.8,4.2,97.3-36.9,127.2
		c-27.2,19.8-41.6,45-53,74.4c-5.8,14.9-11.5,30-19.5,43.8c-24.2,41.5-67.5,41.2-92.5-0.2c-5.7-9.4-9.4-19.5-11.9-30.3
		c-7.3-31.3-1.1-64.3-26.4-93.6c-17.4-20.3,1.2-55.2,26.5-67.3c24.9-11.9,53.5-4,69.2,19.3c15.3,22.6,10.4,54.3-11.3,73
		c-19.5,16.8-23.9,54.4-9.1,75.3c7.8,11,13.9,10.8,19.3-2c7.5-17.8,15.7-35.3,22.9-53.2c11.2-27.9,25.7-52.1,52.8-68.6
		c28.5-17.3,35.7-45.8,29.7-77.5c-3.5-18.7-15-32.4-33.2-38.2c-20.2-6.4-40.7-6-55.9,11.2c-11,12.5-22,20.5-36,6.9
		c-15.2-14.8-5-27.7,6.1-39.2C645.1,285.7,667.2,277.1,692.1,279.1z"/>
	<path id="XMLID_165_" class="st0" d="M892.2,245.3c2,15.5,1.3,31.1-0.9,46.6c-4.1,29-12.2,56.2-24.7,83.2
		c-6.9,14.9-20.4,23.1-34.1,14.9c-11-6.5-11.2-22.3-5-35.1c19-39.5,31.9-79.8,16.8-123.7c-10.6-31-34-56-64.3-71.7
		c-53.8-27.8-120.8-16.1-160.9,29.2c-14.3,16.1-25.1,36-30.2,60.7c-2,9.9-3.6,19.9-4.3,30c-0.9,14.7-10.7,25.1-22.6,24.4
		c-13.5-0.8-21.8-12.4-19.9-26.9c12.8-98.4,74.7-183.7,197.3-171.2c44.7,4.6,87,24.2,116.4,58.1
		C875.8,186.9,888.2,213.9,892.2,245.3z"/>
</g>
</svg>
