<?xml version="1.0" encoding="utf-8"?>
<!-- Generator: Adobe Illustrator 19.0.0, SVG Export Plug-In . SVG Version: 6.00 Build 0)  -->
<svg version="1.1" id="Capa_1" xmlns="http://www.w3.org/2000/svg" xmlns:xlink="http://www.w3.org/1999/xlink" x="0px" y="0px"
	 viewBox="206 -116 1024 1024" style="enable-background:new 206 -116 1024 1024;" xml:space="preserve">
<style type="text/css">
	.st0{fill:#FFFFFF;}
</style>
<path id="XMLID_99_" class="st0" d="M1137.3,289.5c0,23.9-3.9,47.6-11.5,70C1090.2,520.6,782.2,715.6,769,723.9
	c-4.1,2.7-8.5,3.9-13.4,3.9c-4.6,0-9.2-1.2-13.4-3.9c-3.4-2.2-90.4-56.9-178.2-132.3c-10.5-9.1-11.7-24.7-2.9-35.2
	c9.1-10.5,24.9-11.7,35.4-2.9c65.4,56.2,131.8,101.3,159.3,119.6c92.5-60.3,296.8-213.8,321.7-326.8c6.6-20,9.5-38.3,9.5-56.6
	c0-64.2-34.9-123.5-91.3-154.5c-72-40.1-168.2-21.5-220.9,41.7c-9.5,11.4-28.8,11.4-38.6,0c-52.7-63.5-148.9-81.5-220.9-42
	c-56.4,31.2-91.3,90.3-91.3,154.5c0,18.3,2.9,36.6,8.7,54.2c3.7,16.6,10.7,32.7,19.8,49.6h146L648.7,278
	c4.4-9.7,14.6-16.1,25.1-14.9c10.7,0.9,19.7,8.6,22.2,19l36.9,156l47.6-78.1c4.6-7.6,12.7-12.2,21.5-12.2h90.5
	c13.7,0,24.9,11.2,24.9,25.2c0,13.6-11.2,24.9-24.9,24.9h-76.7L744.1,516c-4.6,7.6-12.7,11.9-21.2,11.9c-1.4,0-2.7,0-3.9-0.2
	c-10.3-1.4-18.1-9-20.6-18.8l-33.7-142L638.2,428c-4.2,9.3-12.9,15.2-23,15.2H323.5c-13.6,0-24.9-11.2-24.9-25.2
	c0-13.6,11.2-24.9,24.9-24.9H397c-5.4-12.4-9.5-24.7-12.2-36.1c-6.8-20.3-10.7-43.7-10.7-67.6c0-82.3,44.9-158.4,117.4-198.2
	c84-46.4,195-31.7,264.3,33.4c69.1-65.2,180.2-79.8,264.1-33.4C1092.4,131,1137.3,207.2,1137.3,289.5L1137.3,289.5z M1137.3,289.5"
	/>
</svg>
