<?xml version="1.0" encoding="utf-8"?>
<!-- Generator: Adobe Illustrator 19.0.0, SVG Export Plug-In . SVG Version: 6.00 Build 0)  -->
<svg version="1.1" id="Capa_1" xmlns="http://www.w3.org/2000/svg" xmlns:xlink="http://www.w3.org/1999/xlink" x="0px" y="0px"
	 viewBox="206 -116 1024 1024" style="enable-background:new 206 -116 1024 1024;" xml:space="preserve">
<style type="text/css">
	.st0{fill:#FFFFFF;}
</style>
<g id="XMLID_168_">
	<path id="XMLID_183_" class="st0" d="M776.6,591.3c0-49.1-0.4-98.3,0.2-147.4c0.2-22.6,11.1-34.8,28.4-32.7
		c19.8,2.4,24.7,16.2,24.6,34.2c-0.3,91.2-0.2,182.3-0.1,273.5c0,7.9-0.3,15.9,0.6,23.8c1.8,15.2,9,24.7,26.1,24.5
		c53.9-0.4,107.9,1.3,161.7-0.9c70.9-2.9,116.3-49.6,132.1-132.9c20.3-106.9,0.1-209.6-35.9-309.9
		c-27.5-76.8-66.4-147.3-125.8-204.6c-34.3-33.1-73.3-57.5-122-63.7c-27.3-3.5-36,3.2-36.7,31.4c-0.6,23.8-0.4,47.6-0.1,71.3
		c0.3,17.8-7.2,30.2-25.2,31.1c-18.2,0.9-27.4-11.3-27.6-28.7c-0.3-30.1-1.4-60.4,1.3-90.3c4.1-45.2,32.9-70.2,77.7-68.6
		c82.9,3.1,144.9,46.8,196.4,107c82,95.8,126.6,209.1,148.7,331.9c13.7,76.3,16.7,153-4.9,228.5c-21.7,76-65,132.9-147.4,147.1
		c-32.4,5.6-66.4,2.7-99.6,3.1c-31.7,0.4-63.4,0.2-95.1,0c-44.3-0.3-73.7-25.4-76-70.7c-2.6-52.2-0.6-104.6-0.6-156.9
		C777.1,591.3,776.9,591.3,776.6,591.3z"/>
	<path id="XMLID_182_" class="st0" d="M659,595.7c0,46.8,0.2,93.5-0.1,140.3c-0.3,54.6-29.1,82.9-83.9,83c-48.3,0-96.7,0-145,0
		c-90.5-0.1-151.4-42.3-182.9-127.3c-24.5-66.2-26.8-135-19-203.9C243.1,355.5,286,233.3,368,127c47-61,104.4-108,183-123.2
		C621.2-9.8,659,20.9,659,92.8c0,19.8-0.5,39.6,0.1,59.4c0.6,18.9-4.2,34.3-25.9,35c-22.2,0.7-26.9-14.6-26.4-33.7
		c0.6-23,0.9-46-0.3-68.9c-1.4-26.5-10.7-33-36.5-29.8c-65,8.3-113.3,45.5-151.2,94.7c-106.4,138-154.7,294.3-135.3,468.8
		c2.8,25.4,12.4,50.8,23,74.3c21.5,47.7,60.7,72.3,112.7,73.7c53.1,1.5,106.2,0.3,159.3,0.7c15.4,0.1,23.9-7,26.3-21.6
		c1.4-8.5,2.1-17.3,2.1-25.9c0.1-89.6,0.2-179.1,0-268.7c0-18,1.5-34.3,24.4-35.8c18.6-1.2,27.6,10.5,27.6,35.5
		C659.1,499,659,547.4,659,595.7z"/>
	<path id="XMLID_181_" class="st0" d="M717.8,245.6c-47.9,51.6-94.4,101.3-140,151.7c-5.1,5.6-7.6,15.4-7.9,23.4
		c-0.9,29.3-0.5,58.6-0.4,88c0.1,17.8-7.2,29.7-26.2,29.2c-18.7-0.4-25.9-12.4-25.8-30.1c0.2-22.7,0-45.4,0-71.8
		c-23.9,11.1-44.6,20.5-65,30.3c-15.8,7.6-30.6,7-38.8-9.4c-8.4-16.9-2.4-32.7,15.8-38.3C532,387.1,588.9,300.8,659.8,230.8
		c24.8-24.5,33.6-50.2,31.8-84c-2.4-45.8-0.8-91.9-0.5-137.9c0.1-18.5,2.7-36.6,27.2-36.1c24,0.4,26.6,17.6,26.5,36.6
		c-0.2,55.5-0.8,111,0.5,166.4c0.3,11.3,5.2,24.9,12.7,33.2c44.9,50.1,88.9,101.6,138.1,147.3c25.1,23.4,60.5,35.8,91.3,52.9
		c7.6,4.2,16,7,23.5,11.4c14.7,8.5,19.1,21.6,11.4,36.3c-7.2,13.9-20.2,17.5-34.5,11.2c-21.6-9.5-42.9-19.9-69.2-32.2
		c0,24.2,0.2,45.1-0.1,66c-0.3,25.2-9.2,37.2-27.2,36.1c-22.1-1.4-26.3-16.8-25.8-35.2c0-1.6-0.2-3.2,0-4.7
		c12.2-68.6-12.6-121.4-65.3-165.6C770.7,307.6,746.6,276.4,717.8,245.6z"/>
</g>
</svg>
