<?xml version="1.0" encoding="utf-8"?>
<!-- Generator: Adobe Illustrator 19.0.0, SVG Export Plug-In . SVG Version: 6.00 Build 0)  -->
<svg version="1.1" id="Capa_1" xmlns="http://www.w3.org/2000/svg" xmlns:xlink="http://www.w3.org/1999/xlink" x="0px" y="0px"
	 viewBox="206 -116 1024 1024" style="enable-background:new 206 -116 1024 1024;" xml:space="preserve">
<style type="text/css">
	.st0{fill:#FFFFFF;}
</style>
<g id="XMLID_120_">
	<path id="XMLID_134_" class="st0" d="M933.7,260.1V92.4h9.3c33.1,0,60-26.9,60-60s-26.9-60-60-60H769.8c-33.1,0-60,26.9-60,60
		s26.9,60,60,60h9.3v167.7c-122.4,34.8-207.5,146.7-207.8,274.4c0,157.1,127.8,285,284.9,285.1c4.5,0,9.1,0,13.6-0.3
		c125.8-5.8,231.5-91.7,262.9-213.7C1171.3,455.3,1082.3,301.7,933.7,260.1z M809.5,304.9c11.8-2.4,20.3-12.9,20.3-24.9V92.4h26.6
		c4.5,0,8.1-3.6,8.1-8.1V49.7c0-4.5-3.6-8.1-8.1-8.1h-86.6c-5.1,0-9.3-4.1-9.3-9.2c0-5.1,4.1-9.3,9.3-9.3H943c5.1,0,9.3,4.1,9.3,9.3
		s-4.1,9.3-9.3,9.3h-34.6C894.3,41.7,883,53,883,67v213c0,12,8.5,22.5,20.3,24.9c105,21.5,182,111.3,187.1,218.4
		c3,62.5-18.6,122.5-60.7,168.8c-42.1,46.3-99.7,73.5-162.2,76.5c0,0,0,0,0,0c-3.7,0.2-7.4,0.3-11.1,0.3
		c-62.6,0-121.4-24.4-165.7-68.6c-44.3-44.3-68.6-103.1-68.6-165.7C622.3,423.8,701.1,327.2,809.5,304.9z"/>
	<path id="XMLID_131_" class="st0" d="M856.4,750.3C856.4,750.3,856.4,750.3,856.4,750.3C856.5,750.3,856.5,750.3,856.4,750.3
		c0.1,0,0.1,0,0.1,0c118.5-0.3,215.3-96.9,215.7-215.4c0,0,0,0,0,0c0-6.9-2.8-13.6-7.9-18.4c-4.9-4.7-11.7-7.3-18.5-7
		c-32.1,1.1-63.6,7.2-93.8,18.3c-30.7,11.3-62.8,16.7-95.8,15.9c-32.7,0.9-64.8-4.6-95.5-15.9c-30.1-11.1-61.7-17.2-93.8-18.3
		c-6.9-0.4-13.4,2.3-18.5,7.1c-5,4.8-7.8,11.5-7.8,18.4C641,653.5,737.8,750.2,856.4,750.3z M874.6,698.5
		c-43.8,4.9-86.9-7.6-121.3-35.2c-31.7-25.4-52.6-60.7-59.5-100.4c17.2,2.6,34.1,6.9,50.5,12.9c36.1,13.2,73.9,19.5,112,18.7
		c38.4,0.8,76.2-5.4,112.3-18.7c16.3-6,33.3-10.3,50.5-12.9C1006.5,635.2,948.4,690.3,874.6,698.5z"/>
	<path id="XMLID_130_" class="st0" d="M856.4,369.4c0.1,0,0.3,0,0.5,0c43.3,0,85.7,17.6,116.2,48.3c1.5,1.5,3.6,2.4,5.7,2.4
		c0,0,0,0,0,0c2.1,0,4.2-0.9,5.7-2.4l24.5-24.5c3.1-3.1,3.1-8.2,0-11.4c-40-40.2-95.4-63.2-152.1-63.2c-0.2,0-0.4,0-0.6,0
		c-4.4,0-8,3.6-8,8.1v34.6c0,2.1,0.9,4.2,2.4,5.7C852.2,368.6,854.2,369.4,856.4,369.4z"/>
	<path id="XMLID_129_" class="st0" d="M665.9,768.8H475.5c-24.2,0-43.9-19.7-43.9-43.9l0-26.6h113.1c4.5,0,8.1-3.6,8.1-8.1v-34.6
		c0-4.5-3.6-8.1-8.1-8.1H431.6l0-35.8h61.2c4.5,0,8.1-3.6,8.1-8.1v-34.6c0-4.5-3.6-8.1-8.1-8.1h-61.2l0-35.8h113.1
		c4.5,0,8.1-3.6,8.1-8.1v-34.6c0-4.5-3.6-8.1-8.1-8.1H431.6l0-35.8h61.2c4.5,0,8.1-3.6,8.1-8.1V396c0-4.5-3.6-8.1-8.1-8.1h-61.2
		l0-35.8h113.1c4.5,0,8.1-3.6,8.1-8.1v-34.6c0-4.5-3.6-8.1-8.1-8.1H431.6c-0.7-18.9-6.2-37.1-16-53.1h336.9c2.1,0,4.2-0.9,5.7-2.4
		c1.5-1.5,2.4-3.6,2.4-5.7l0-34.6c0-4.5-3.6-8.1-8.1-8.1H319.7c-14,0-25.4,11.4-25.4,25.4c0,14,11.4,25.4,25.4,25.4
		c6.3,0,61.2,1.7,61.2,61.2V725c0.1,52.1,42.5,94.6,94.6,94.6h190.4c4.5,0,8.1-3.6,8.1-8.1v-34.6C674,772.4,670.4,768.8,665.9,768.8
		z"/>
	<path id="XMLID_126_" class="st0" d="M371.6,127c42.6,0,77.3-34.7,77.3-77.3c0-42.6-34.7-77.3-77.3-77.3s-77.3,34.7-77.3,77.3
		C294.3,92.4,329,127,371.6,127z M345,49.7c0-14.6,11.9-26.6,26.6-26.6c0,0,0,0,0,0c7.1,0,13.8,2.8,18.8,7.8c5,5,7.8,11.7,7.8,18.8
		c0,14.6-11.9,26.6-26.6,26.6S345,64.4,345,49.7z"/>
	<path id="XMLID_122_" class="st0" d="M527.4,179c33.1,0,60-26.9,60-60s-26.9-60-60-60c-33.1,0-60,26.9-60,60S494.3,179,527.4,179z
		 M518.2,119c0-5.1,4.1-9.3,9.3-9.3c5.1,0,9.3,4.1,9.3,9.2c0,5.1-4.2,9.3-9.3,9.3C522.3,128.2,518.2,124.1,518.2,119z"/>
</g>
</svg>
