<?xml version="1.0" encoding="utf-8"?>
<!-- Generator: Adobe Illustrator 19.0.0, SVG Export Plug-In . SVG Version: 6.00 Build 0)  -->
<svg version="1.1" id="Capa_1" xmlns="http://www.w3.org/2000/svg" xmlns:xlink="http://www.w3.org/1999/xlink" x="0px" y="0px"
	 viewBox="206 -116 1024 1024" style="enable-background:new 206 -116 1024 1024;" xml:space="preserve">
<style type="text/css">
	.st0{fill:#FFFFFF;}
</style>
<g id="XMLID_188_">
	<g id="XMLID_189_">
		<path id="XMLID_230_" class="st0" d="M881.1,672.9c-11.9,0-21.7,9.7-21.7,21.7s9.7,21.7,21.7,21.7c12,0,21.7-9.7,21.7-21.7
			S893.1,672.9,881.1,672.9z"/>
		<path id="XMLID_229_" class="st0" d="M554.8,672.9c-12,0-21.7,9.7-21.7,21.7s9.7,21.7,21.7,21.7c11.9,0,21.7-9.7,21.7-21.7
			S566.8,672.9,554.8,672.9z"/>
		<path id="XMLID_190_" class="st0" d="M378.3,814.4c-0.6-0.4-1.1-0.9-1.6-1.4C377.2,813.5,377.7,813.9,378.3,814.4z M376.7,813
			c-1-1-2-2.1-2.8-3.3C374.7,810.9,375.6,812,376.7,813z M468,309.6c0-16,5.4-31.4,15.3-43.8l0,0C473.3,278.2,467.9,293.6,468,309.6
			c-0.1,19.9,8.2,37.8,21.4,50.7C476.2,347.3,468,329.4,468,309.6z M495,365.1c0.9,0.7,1.8,1.4,2.7,2
			C496.8,366.5,495.9,365.8,495,365.1z M483.8,189.6c-10.2,10.3-15.9,23.9-15.9,38.4c0,6.6,1.2,13.1,3.5,19.2
			c-2.3-6.1-3.5-12.5-3.5-19.2c0-22,13.3-41.8,33.5-50.1v0C494.8,180.5,488.9,184.5,483.8,189.6z M540.6,727.2
			c0.6-0.5,1.2-1,1.8-1.4C541.8,726.2,541.2,726.7,540.6,727.2z M536.1,732.6c1.2-2,2.7-3.9,4.4-5.4
			C538.8,728.8,537.3,730.6,536.1,732.6z M536.1,732.6c-0.8,1.3-1.4,2.8-1.9,4.3C534.7,735.4,535.3,734,536.1,732.6z M540.6,661.9
			c0.6,0.5,1.2,1,1.8,1.4C541.8,662.9,541.2,662.4,540.6,661.9z M536.1,656.5c1.2,2,2.7,3.9,4.4,5.4
			C538.8,660.4,537.3,658.6,536.1,656.5z M536.1,656.5c-0.8-1.4-1.4-2.8-1.9-4.3C534.7,653.7,535.3,655.2,536.1,656.5z M541.2,380.2
			L541.2,380.2c2.2,7.4,4.8,14.7,8,21.8C546.1,395,543.4,387.7,541.2,380.2z M536,86.8c5.6-7.7,11.8-15,18.5-21.7
			C547.7,71.8,541.6,79.1,536,86.8z M536,86.8c-1.3,1.7-2.5,3.4-3.7,5.2C533.5,90.2,534.7,88.5,536,86.8z M561.5,58.3
			c1.7-1.5,3.4-3,5.1-4.5C564.9,55.3,563.2,56.8,561.5,58.3z M566.6,53.9c1.7-1.5,3.5-2.9,5.3-4.3C570.1,51,568.4,52.4,566.6,53.9z
			 M631.1,130.1V64.7c0,0,0,0-0.1,0L631.1,130.1c-0.1,6.9,3.2,13.1,8.3,17.1C634.4,143.2,631.1,137,631.1,130.1z M632.8,18.2
			c-17.6,5.2-33.9,12.9-48.8,22.7C598.9,31.1,615.3,23.4,632.8,18.2c5.1-20.2,20.5-39.8,42.9-44.3C653.3-21.7,637.9-2,632.8,18.2z
			 M580.5,43.3c-1.8,1.2-3.5,2.4-5.2,3.7C577,45.7,578.7,44.5,580.5,43.3z M672.2,509.6c-1.5-0.4-3.1-0.8-4.6-1.3
			C669.2,508.8,670.7,509.2,672.2,509.6z M641.8,498.4c5.9,2.8,11.9,5.3,18,7.4C653.7,503.6,647.7,501.2,641.8,498.4L641.8,498.4z
			 M610.9,548.2L610.9,548.2l85.4,89.8v137.7h0.1V638L610.9,548.2z M751.3,16.4c3.1,0.6,7.3,5,9.3,10.3
			C758.7,21.4,754.4,17,751.3,16.4z M769.8,147c-0.6-0.5-1.1-1-1.7-1.5C768.6,146.1,769.2,146.6,769.8,147z M768.1,145.6
			c-2.9-2.8-4.9-6.4-5.9-10.4C763.2,139.2,765.3,142.8,768.1,145.6z M794.2,498.4v19.5l-76.2,80l76.2-80L794.2,498.4
			C794.2,498.4,794.2,498.4,794.2,498.4z M801.7,443c-6.9,5.3-14.1,10-21.5,13.9C787.7,453,794.9,448.4,801.7,443
			c1.8-1.4,3.5-2.8,5.2-4.2C805.3,440.3,803.5,441.7,801.7,443z M816.7,429.7c0.3-0.3,0.7-0.7,1-1c1.2-1.3,2.4-2.5,3.5-3.8
			C819.8,426.5,818.3,428.1,816.7,429.7z M840.7,466.8c-1,0.9-2.1,1.9-3.1,2.8v0.1c2-1.7,3.9-3.5,5.8-5.3
			C842.5,465.2,841.6,466,840.7,466.8z M845.2,389c3.6-7.5,6.5-15.4,8.8-23.5C851.7,373.6,848.7,381.4,845.2,389z M859.5,282.3v43.6
			c0,9.4-0.9,18.8-2.7,27.9l-0.1,0.7l0.1-0.5c1.8-9.2,2.8-18.7,2.8-28.1L859.5,282.3L859.5,282.3z M859.5,743.5v32.2h0.1
			L859.5,743.5c0.1-6.9,3.3-13.1,8.4-17.1C862.7,730.4,859.5,736.6,859.5,743.5z M859.5,645.6v-97.4h-0.1L859.5,645.6
			c-0.1,6.9,3.2,13.1,8.3,17.1C862.8,658.7,859.5,652.6,859.5,645.6z M883.1,410c0.6-1.2,1.2-2.4,1.7-3.6
			C884.3,407.6,883.7,408.8,883.1,410z M883.1,410c-8.8,17.8-20.3,34.3-34.1,48.7C862.9,444.2,874.4,427.8,883.1,410z M805,64.7
			L805,64.7c45.2,18.9,77.9,60.5,85.5,109h0.1C882.9,125.2,850.1,83.6,805,64.7z M917.5,217.7c0.5,0.2,1,0.4,1.5,0.6
			C918.5,218.1,918,217.9,917.5,217.7z M919,218.3c0.5,0.3,0.9,0.5,1.3,0.8C919.9,218.9,919.4,218.6,919,218.3z M952.8,265.7
			C952.8,265.7,952.8,265.7,952.8,265.7c2.8-2.8,5.2-6,7.2-9.3C958,259.8,955.5,262.9,952.8,265.7z M1022.6,723v52.7h0.1L1022.6,723
			C1022.6,723,1022.6,723,1022.6,723z"/>
		<path id="XMLID_241_" class="st0" d="M1035.2,590.9c-18.7-28.9-44.5-52.2-74.6-67.2c-3.1-2.7-6.9-4.4-10.9-5
			c-20.3-8.5-41.6-13.1-63.4-13.7c-0.8,0-1.6,0-2.4-0.1c-0.9,0-1.8,0-2.7,0h-43.6v-35.3c1.1-0.9,2.1-1.9,3.1-2.8
			c0.9-0.8,1.8-1.6,2.6-2.5c0.1-0.1,0.3-0.3,0.4-0.4c0.4-0.4,0.8-0.8,1.3-1.2c0.5-0.4,0.9-0.9,1.3-1.3c0.9-0.9,1.8-1.8,2.7-2.8
			c13.9-14.4,25.4-30.9,34.1-48.7c0.6-1.2,1.2-2.4,1.7-3.6c0.3-0.6,0.6-1.3,0.9-1.9c0.3-0.7,0.6-1.4,1-2.1c0.4-0.9,0.8-1.8,1.2-2.7
			c2.6-6.3,4.9-12.8,6.9-19.4h2.7c12.8,0,24.8-3.4,35.1-9.4c1-0.6,1.9-1.2,2.9-1.8c0.5-0.3,1-0.6,1.4-0.9c0.6-0.4,1.2-0.8,1.7-1.2
			c1.1-0.8,2.3-1.7,3.4-2.6c15.9-13,26-32.7,26-54.8c0-16-5.3-31.4-15.3-43.8c0,0,0,0,0,0c0,0,0,0,0,0c2.8-2.8,5.2-6,7.2-9.3
			c1.1-1.8,2.2-3.8,3.1-5.7c3.3-7,5-14.8,5-22.8c0-22-13.3-41.8-33.5-50.1v0c-0.1-1.1-0.2-2.3-0.4-3.5c-0.2-1.5-0.4-2.9-0.6-4.3
			c-0.3-2.2-0.6-4.3-1-6.5c-0.1-0.7-0.3-1.4-0.4-2.1c-2.4-12.8-6.2-25.2-11.1-37.1c-1.6-3.9-3.4-7.8-5.3-11.6
			c-0.6-1.3-1.3-2.5-1.9-3.8c-0.5-1-1.1-2-1.6-3c-2.8-5-5.7-9.8-8.9-14.4c0,0,0,0,0,0c-0.9-1.4-1.9-2.8-2.9-4.2
			c-0.5-0.7-1-1.4-1.5-2c-2.5-3.4-5.2-6.7-7.9-9.9c-3.3-3.9-6.8-7.6-10.4-11.2c-1.2-1.2-2.4-2.4-3.7-3.5c-0.8-0.8-1.7-1.5-2.5-2.3
			c-1.7-1.5-3.4-3-5.1-4.5h0c-1.7-1.5-3.5-2.9-5.3-4.3c0,0,0,0,0,0c-1.1-0.9-2.3-1.7-3.4-2.6c-1.7-1.3-3.4-2.5-5.2-3.7
			c-1.2-0.8-2.3-1.6-3.5-2.4c0,0,0,0,0,0c-1.2-0.8-2.4-1.5-3.6-2.3c0,0,0,0,0,0c-13.9-8.7-29.1-15.6-45.3-20.4
			c-4.9-19.8-19.9-39.1-41.7-44c-1.1-0.2-2.2-0.5-3.3-0.6c-0.4-0.1-0.8-0.1-1.1-0.2c0,0,0,0,0,0c-0.4-0.1-0.8-0.1-1.2-0.1
			c-1.6-0.2-3.3-0.3-5-0.3h-65.3c-1.7,0-3.4,0.1-5.1,0.3c-1.6,0.2-3.1,0.4-4.6,0.7c-22.4,4.5-37.9,24.1-42.9,44.3
			c-17.6,5.2-34,12.9-48.9,22.7c0,0,0,0,0,0c-1.2,0.8-2.4,1.6-3.5,2.4c-1.8,1.2-3.5,2.5-5.2,3.7c-1.1,0.8-2.3,1.7-3.4,2.6
			c0,0,0,0,0,0c-1.8,1.4-3.5,2.8-5.3,4.3h0c-1.7,1.5-3.4,3-5.1,4.5c-0.8,0.8-1.7,1.5-2.5,2.3c-1.5,1.5-3.1,2.9-4.6,4.4
			c-6.7,6.8-12.9,14-18.5,21.7c0,0,0,0,0,0c-1.2,1.7-2.5,3.4-3.7,5.2c-1.8,2.6-3.5,5.3-5.1,8v0c-1.2,1.9-2.3,3.9-3.4,5.9
			c0,0,0,0,0,0c-0.7,1.3-1.4,2.6-2.1,3.9c-1.4,2.6-2.7,5.3-4,8c-0.6,1.3-1.2,2.7-1.8,4.1c-0.6,1.4-1.2,2.8-1.7,4.1
			c-2.3,5.5-4.2,11.2-6,17c-0.4,1.4-0.8,2.9-1.2,4.4c-0.6,2.2-1.1,4.4-1.6,6.6c-0.5,2.2-1,4.4-1.4,6.7c-0.6,3-1.1,6-1.5,9
			c-0.2,1.5-0.4,3-0.6,4.6c-0.1,1.2-0.3,2.3-0.4,3.5v0C481.2,186.2,468,206,468,228c0,6.7,1.2,13.1,3.5,19.2
			c0.4,0.9,0.7,1.8,1.1,2.7c0.3,0.7,0.7,1.4,1,2.1c0,0,0,0,0,0c2.5,5,5.7,9.6,9.7,13.7c0,0,0,0,0,0l0,0
			c-9.9,12.4-15.3,27.8-15.3,43.8c0,19.8,8.2,37.8,21.4,50.7c1.4,1.3,2.8,2.6,4.3,3.8c0.4,0.4,0.9,0.7,1.3,1.1
			c0.9,0.7,1.8,1.4,2.7,2h0c0.7,0.5,1.4,1,2.1,1.4h0c0.7,0.5,1.4,0.9,2.2,1.4h0c0.7,0.4,1.5,0.9,2.2,1.3c0.8,0.4,1.5,0.8,2.3,1.2
			c1,0.5,2.1,1,3.1,1.5c1,0.5,2.1,0.9,3.2,1.3c8,3.2,16.7,4.9,25.9,4.9h2.7c2.2,7.5,4.9,14.8,8,21.8c0.4,1,0.9,2,1.4,3
			c0.3,0.7,0.6,1.3,0.9,2c8.9,18.9,20.9,36.4,35.5,51.6c0.9,0.9,1.8,1.8,2.7,2.8c0.4,0.4,0.9,0.9,1.3,1.3c0,0,0,0,0,0
			c0.1,0.1,0.2,0.1,0.2,0.2c0.4,0.4,0.8,0.7,1.2,1.1c0.1,0.1,0.2,0.2,0.4,0.3c0,0,0,0,0,0c0.4,0.4,0.8,0.7,1.1,1.1
			c0.5,0.4,0.9,0.9,1.4,1.3c0.5,0.4,1,0.9,1.5,1.4c0.5,0.5,1,0.9,1.6,1.4v35.3h-43.6c-0.9,0-1.8,0-2.7,0c-22.7,0.3-44.8,5-65.8,13.8
			c-4,0.6-7.8,2.3-10.9,5c-30.1,15-56,38.3-74.6,67.2c-20.1,31.2-30.8,67-30.8,103.7v102.8c0,1.5,0.2,2.9,0.4,4.4
			c0.2,1,0.5,1.9,0.8,2.8c0.2,0.5,0.3,0.9,0.5,1.4c0.6,1.3,1.3,2.6,2.1,3.8c0.8,1.2,1.8,2.3,2.8,3.3c0,0,0,0,0,0
			c0.5,0.5,1.1,1,1.6,1.4c0.4,0.3,0.8,0.6,1.1,0.8c0,0,0,0,0,0c0.4,0.3,0.8,0.5,1.2,0.8c0.2,0.1,0.4,0.2,0.6,0.4
			c0.4,0.2,0.9,0.4,1.3,0.7c0.9,0.4,1.8,0.8,2.7,1c2,0.6,4.2,1,6.4,1h652.6c2.2,0,4.4-0.3,6.4-1c0.7-0.2,1.3-0.4,2-0.7
			c0.3-0.1,0.7-0.3,1-0.4c0.3-0.2,0.7-0.4,1.1-0.5c0.7-0.4,1.4-0.8,2-1.3c2.5-1.8,4.7-4.1,6.3-6.8c0,0,0,0,0,0
			c0.8-1.3,1.4-2.8,1.9-4.3c0.1-0.4,0.2-0.8,0.3-1.2c0.4-1.7,0.7-3.5,0.7-5.4V694.6C1066,657.9,1055.3,622.1,1035.2,590.9z
			 M467.9,775.7h-54.6v-81.1c0-43.6,20.7-86.6,54.6-114.6V775.7z M902.5,336.4c0.2-3.6,0.3-7.1,0.3-10.5v-43.1
			c12.5,2.5,21.9,13.6,21.9,26.8C924.7,322.9,915.1,334,902.5,336.4z M631,64.7L631,64.7C631.1,64.7,631.1,64.7,631,64.7l0.1,65.4
			c0,6.9,3.3,13.1,8.3,17.1c0.2,0.1,0.4,0.3,0.6,0.4c0.4,0.3,0.8,0.5,1.2,0.8c0.4,0.3,0.8,0.5,1.2,0.7c3.1,1.7,6.6,2.6,10.3,2.6
			c2.2,0,4.4-0.3,6.4-1c0.7-0.2,1.4-0.5,2-0.7c0.3-0.1,0.7-0.3,1-0.4c1.1-0.5,2.1-1.1,3.1-1.8c0.6-0.5,1.2-0.9,1.8-1.5c0,0,0,0,0,0
			c1.8-1.5,3.3-3.4,4.5-5.4c0.8-1.4,1.4-2.8,1.9-4.3c0.1-0.4,0.2-0.8,0.3-1.2c0.4-1.7,0.7-3.5,0.7-5.4V32.2c0-0.5,0-1,0.1-1.5
			c0-0.5,0.1-1,0.2-1.5c0-0.2,0.1-0.5,0.2-0.7c0.1-0.4,0.2-0.8,0.3-1.2v0c0.1-0.2,0.1-0.4,0.2-0.6v0c0.1-0.2,0.1-0.4,0.2-0.6
			c0,0,0,0,0,0c2-5.1,6.1-9.2,9.1-9.7c0.1,0,0.2,0,0.3,0c0.1,0,0.3,0,0.4,0h65.3c0.1,0,0.2,0,0.3,0c0.1,0,0.2,0,0.3,0
			c3.1,0.6,7.4,4.9,9.3,10.3v0c0.1,0.4,0.3,0.8,0.4,1.2c0.1,0.2,0.1,0.4,0.2,0.6c0.1,0.2,0.1,0.5,0.2,0.7c0.1,0.5,0.2,1,0.2,1.5
			c0.1,0.5,0.1,1,0.1,1.5v97.9c0,1.5,0.1,2.9,0.4,4.4c0.1,0.3,0.1,0.5,0.2,0.8c1,4,3.1,7.6,5.9,10.4c0.5,0.5,1.1,1,1.7,1.5
			c0,0,0,0,0,0c0.4,0.3,0.8,0.6,1.2,0.9c0,0,0,0,0,0c0.4,0.3,0.8,0.5,1.3,0.8c0.2,0.1,0.4,0.3,0.7,0.4c0.4,0.2,0.9,0.5,1.3,0.7
			c1.2,0.5,2.4,1,3.6,1.3c1.7,0.5,3.6,0.7,5.4,0.7c3.7,0,7.3-1,10.3-2.6c0.4-0.2,0.8-0.5,1.2-0.7s0.8-0.5,1.2-0.8
			c0.2-0.1,0.4-0.3,0.6-0.4c5.1-4,8.3-10.2,8.3-17.1V64.7c0,0,0,0,0.1,0v0c45.2,18.8,77.9,60.5,85.5,109H545.5
			C553.1,125.2,585.9,83.6,631,64.7z M511.3,309.6c0-13.2,9.4-24.3,21.9-26.8v43.1c0,3.4,0.1,6.9,0.3,10.5
			C520.9,334,511.3,322.9,511.3,309.6z M522.3,238.9c-0.5,0-1.1,0-1.6-0.1c-0.3,0-0.7-0.1-1-0.2c-0.2-0.1-0.4-0.1-0.6-0.2
			c-0.2,0-0.3-0.1-0.5-0.2c-0.2-0.1-0.3-0.1-0.5-0.2c-0.2-0.1-0.3-0.1-0.5-0.2c-0.1-0.1-0.2-0.1-0.3-0.2c-0.4-0.2-0.8-0.4-1.2-0.7
			c-0.3-0.2-0.5-0.4-0.8-0.6c-0.3-0.2-0.5-0.5-0.8-0.7c-0.1-0.1-0.3-0.3-0.4-0.4c-0.5-0.5-0.9-1.1-1.3-1.7c-0.1-0.2-0.2-0.3-0.3-0.5
			c-0.1-0.2-0.2-0.3-0.2-0.5c0,0,0,0,0-0.1c-0.3-0.6-0.5-1.3-0.7-2c-0.1-0.2-0.1-0.3-0.1-0.5c0-0.2-0.1-0.4-0.1-0.6
			c-0.1-0.3-0.1-0.7-0.1-1c0-0.2,0-0.4,0-0.6c0-0.2,0-0.4,0-0.7c0-0.1,0-0.3,0-0.5c0-0.4,0.1-0.8,0.2-1.2c0.1-0.3,0.1-0.5,0.2-0.8
			c0,0,0-0.1,0-0.1c0.1-0.2,0.1-0.3,0.2-0.5c0.1-0.3,0.3-0.7,0.4-1c0.1-0.3,0.3-0.6,0.5-0.9c0.1-0.1,0.2-0.3,0.3-0.4
			c0.4-0.6,0.8-1.1,1.3-1.6c0.1-0.1,0.3-0.3,0.4-0.4c0.1-0.1,0.3-0.2,0.4-0.3c1-0.8,2-1.4,3.2-1.8c0.3-0.1,0.7-0.2,1-0.3
			c0,0,0,0,0,0c0.7-0.2,1.4-0.3,2.1-0.3c0.2,0,0.4,0,0.6,0h391.6c0.2,0,0.4,0,0.5,0c0.5,0,1.1,0.1,1.6,0.2c0.2,0,0.3,0.1,0.5,0.1
			c0.2,0,0.3,0.1,0.5,0.2c0.2,0,0.3,0.1,0.5,0.2c0.5,0.2,1,0.4,1.5,0.6c0.5,0.2,0.9,0.5,1.3,0.8c0.3,0.2,0.6,0.5,0.8,0.7
			c0.3,0.2,0.5,0.5,0.7,0.7c0.4,0.4,0.7,0.8,1,1.2c0.1,0.1,0.2,0.2,0.2,0.3c0,0.1,0.1,0.1,0.1,0.2c0.2,0.3,0.3,0.6,0.5,0.9
			c0,0.1,0.1,0.1,0.1,0.2c0,0.1,0.1,0.3,0.2,0.4c0.1,0.2,0.1,0.3,0.2,0.5c0.1,0.2,0.1,0.3,0.2,0.5c0.1,0.2,0.1,0.4,0.1,0.5
			c0,0.2,0.1,0.3,0.1,0.5c0.1,0.3,0.1,0.7,0.2,1c0,0.1,0,0.3,0,0.5c0,0.2,0,0.4,0,0.7c0,0.2,0,0.4,0,0.6c0,0.3-0.1,0.7-0.1,1
			c-0.1,0.9-0.4,1.8-0.7,2.6c-0.1,0.3-0.3,0.7-0.5,1c-0.4,0.8-0.9,1.5-1.5,2.1c-0.1,0.1-0.3,0.3-0.4,0.4c-0.1,0.1-0.3,0.3-0.4,0.4
			c-0.1,0.1-0.3,0.3-0.4,0.4c-0.3,0.2-0.6,0.5-0.9,0.6c-0.4,0.2-0.7,0.4-1.1,0.6c-0.1,0.1-0.2,0.1-0.3,0.2c-0.2,0.1-0.3,0.1-0.5,0.2
			c-0.5,0.2-1.1,0.4-1.7,0.5c-0.1,0-0.2,0.1-0.4,0.1c-0.7,0.1-1.4,0.2-2.1,0.2H522.3z M597.3,401.2c-0.3-0.5-0.6-0.9-0.8-1.4
			c-0.4-0.7-0.9-1.5-1.3-2.3c-0.5-0.8-0.9-1.6-1.3-2.4c-0.7-1.2-1.3-2.4-1.9-3.7c-0.3-0.6-0.6-1.2-0.9-1.9c-0.6-1.2-1.2-2.5-1.7-3.8
			c0,0,0,0,0,0c-2.8-6.3-5.2-12.8-7.1-19.5c-0.2-0.7-0.4-1.3-0.6-2c-0.3-1.1-0.6-2.2-0.8-3.2c-0.3-1.1-0.5-2.2-0.8-3.3
			c-0.3-1.1-0.5-2.2-0.7-3.3l-0.1-0.5c-1.8-9.2-2.8-18.7-2.8-28.1v-43.6h283v43.6c0,9.4-1,18.8-2.8,28.1l-0.1,0.5
			c-0.2,1.1-0.4,2.2-0.7,3.3c-0.2,1.1-0.5,2.2-0.8,3.3c-0.4,1.5-0.8,3-1.2,4.4c-2.3,8.1-5.2,15.9-8.8,23.5c-0.3,0.7-0.7,1.4-1,2.1
			c-0.7,1.4-1.4,2.7-2.1,4.1c-0.4,0.8-0.9,1.6-1.3,2.4c-0.4,0.8-0.8,1.5-1.3,2.3c-0.3,0.5-0.5,0.9-0.8,1.4c-0.9,1.6-1.9,3.1-2.9,4.6
			c-0.3,0.5-0.7,1.1-1,1.6c-0.2,0.3-0.4,0.7-0.7,1c-0.3,0.5-0.6,0.9-1,1.4c-1.6,2.3-3.2,4.6-5,6.8c-0.4,0.6-0.8,1.1-1.3,1.6
			c-0.5,0.6-1,1.3-1.5,1.9c-0.5,0.7-1.1,1.3-1.6,1.9c-0.8,1-1.6,1.9-2.5,2.8c-1.1,1.3-2.3,2.6-3.5,3.8c-0.3,0.3-0.7,0.7-1,1
			c-0.8,0.8-1.6,1.6-2.4,2.3c-0.8,0.8-1.6,1.5-2.4,2.3c0,0,0,0-0.1,0c-0.8,0.8-1.6,1.5-2.5,2.2c-0.8,0.8-1.7,1.5-2.5,2.2
			c-1.7,1.5-3.4,2.9-5.2,4.2c-6.9,5.3-14.1,10-21.6,13.9c-1.7,0.9-3.5,1.8-5.2,2.6c0,0,0,0,0,0c-1.7,0.8-3.4,1.6-5.1,2.3
			c-16.4,6.9-33.9,10.4-51.8,10.4c-18.9,0-37.3-3.9-54.4-11.5c-0.6-0.3-1.3-0.6-1.9-0.9c-1.3-0.6-2.6-1.2-3.8-1.8
			c-0.6-0.3-1.3-0.6-1.9-1c0,0,0,0,0,0c-0.9-0.5-1.9-1-2.8-1.5c-0.9-0.5-1.9-1-2.8-1.6h0c-5.6-3.2-10.9-6.9-16.1-10.9
			c-1.7-1.4-3.5-2.8-5.2-4.2c-0.6-0.5-1.3-1.1-1.9-1.6c0,0,0,0,0,0c-0.6-0.6-1.2-1.1-1.9-1.7c0,0,0,0,0,0c-1.2-1.1-2.4-2.3-3.6-3.4
			c-1.1-1.1-2.3-2.2-3.4-3.4c-1.2-1.3-2.4-2.5-3.5-3.8c0-0.1-0.1-0.1-0.1-0.1c-0.7-0.8-1.4-1.6-2.1-2.4c-0.6-0.6-1.1-1.3-1.6-1.9
			c-0.5-0.6-1-1.2-1.5-1.8c-0.6-0.7-1.1-1.3-1.6-2c-1.1-1.4-2.2-2.9-3.2-4.3c-0.5-0.7-1-1.4-1.5-2.2c-0.4-0.6-0.8-1.2-1.3-1.8
			c-0.2-0.3-0.4-0.6-0.6-0.9c-0.4-0.5-0.7-1.1-1-1.6C599.2,404.3,598.2,402.7,597.3,401.2z M696.4,775.7H576.5v-32.2
			c0-6.9-3.3-13.1-8.3-17.1c0,0,0,0,0,0c-0.2-0.2-0.4-0.3-0.6-0.4h0c-0.4-0.3-0.8-0.5-1.2-0.8s-0.8-0.5-1.2-0.7
			c-3.1-1.7-6.6-2.6-10.3-2.6c-2.2,0-4.4,0.3-6.4,1c-0.7,0.2-1.4,0.5-2,0.7c-0.3,0.1-0.7,0.3-1,0.4c-1.1,0.5-2.1,1.1-3.1,1.8
			c-0.6,0.5-1.2,0.9-1.8,1.4c0,0,0,0,0,0c-1.8,1.6-3.3,3.4-4.4,5.4c-0.8,1.4-1.4,2.8-1.9,4.3c-0.1,0.4-0.2,0.8-0.3,1.2
			c-0.4,1.7-0.7,3.5-0.7,5.4v32.2h-21.9V555.5c7.1-2.5,14.5-4.3,21.9-5.6v95.7c0,1.9,0.2,3.7,0.7,5.4c0.1,0.4,0.2,0.8,0.3,1.2
			c0.5,1.5,1.1,3,1.9,4.3c1.2,2,2.7,3.9,4.4,5.4c0,0,0,0,0,0c0.6,0.5,1.2,1,1.8,1.4c1,0.7,2,1.3,3.1,1.8c0.3,0.2,0.6,0.3,1,0.4
			c0.6,0.3,1.3,0.5,2,0.7c2,0.6,4.2,1,6.4,1c3.7,0,7.3-0.9,10.3-2.6c0.4-0.2,0.8-0.5,1.2-0.7s0.8-0.5,1.2-0.8
			c0.2-0.1,0.4-0.3,0.6-0.4c5.1-4,8.3-10.2,8.3-17.1v-97.4h34.4l85.5,89.8V775.7z M641.8,517.9v-19.6c0,0,0,0,0.1,0v0
			c5.9,2.8,11.9,5.3,18,7.4c0.9,0.3,1.8,0.6,2.6,0.9c1.7,0.6,3.5,1.1,5.2,1.6c0,0,0,0,0,0c1.5,0.4,3,0.9,4.6,1.3
			c1.1,0.3,2.3,0.6,3.4,0.9c1.8,0.4,3.6,0.8,5.4,1.2c0.9,0.2,1.8,0.4,2.7,0.6c11.2,2.2,22.7,3.3,34.3,3.3c15,0,29.7-1.8,43.9-5.5
			c1.4-0.3,2.8-0.7,4.1-1.1c9.6-2.7,19-6.3,28.2-10.7v0c0,0,0,0,0.1,0v19.6l-76.2,80L641.8,517.9z M924.7,775.7h-21.9v-32.2
			c0-1.5-0.1-3-0.4-4.4c-0.3-1.3-0.6-2.5-1.1-3.7c-0.2-0.5-0.4-0.9-0.6-1.4c-0.1-0.2-0.2-0.4-0.3-0.7c-0.2-0.4-0.5-0.9-0.8-1.3
			c0,0,0,0,0,0c-1.2-1.9-2.7-3.6-4.4-5.1c0,0,0,0,0,0c-0.2-0.2-0.4-0.3-0.6-0.5c0,0,0,0,0,0c-1.6-1.2-3.3-2.3-5.2-3.1h0
			c-0.2-0.1-0.5-0.2-0.7-0.3c-0.7-0.3-1.5-0.5-2.2-0.7c-1.7-0.5-3.6-0.7-5.4-0.7c-3.7,0-7.3,0.9-10.3,2.6c-0.4,0.2-0.8,0.5-1.2,0.7
			c-0.4,0.3-0.8,0.5-1.2,0.8c-0.2,0.1-0.4,0.3-0.6,0.4c-5.1,4-8.3,10.2-8.3,17.1v32.2H739.6V638l85.5-89.8h34.4v97.4
			c0,6.9,3.3,13.1,8.3,17.1c0.2,0.1,0.4,0.3,0.6,0.4c0.4,0.3,0.8,0.5,1.2,0.8c0.4,0.3,0.8,0.5,1.2,0.7c3.1,1.7,6.6,2.6,10.3,2.6
			c1.9,0,3.7-0.2,5.4-0.7c0.7-0.2,1.5-0.4,2.2-0.7c0.5-0.2,0.9-0.4,1.4-0.6c1.6-0.7,3.1-1.7,4.5-2.8c0.2-0.1,0.4-0.3,0.6-0.5
			c1.7-1.5,3.2-3.2,4.4-5.1c0.3-0.4,0.5-0.9,0.8-1.3c0,0,0,0,0,0c0.1-0.2,0.2-0.4,0.3-0.7c0.2-0.4,0.4-0.9,0.6-1.4c0,0,0,0,0,0
			c0.1-0.2,0.2-0.5,0.3-0.7v0c0.1-0.2,0.2-0.5,0.3-0.7c0.2-0.7,0.4-1.5,0.6-2.2c0.3-1.4,0.4-2.9,0.4-4.4V550
			c7.4,1.2,14.8,3.1,21.9,5.6V775.7z M1022.7,775.7h-54.6V580c33.9,28,54.6,71,54.6,114.6V775.7z"/>
	</g>
	<g id="XMLID_187_">
		<g id="XMLID_231_">
			<path id="XMLID_244_" class="st0" d="M554.9,672.9c11.9,0,21.7,9.7,21.7,21.7s-9.7,21.7-21.7,21.7c-12,0-21.7-9.7-21.7-21.7
				S542.9,672.9,554.9,672.9z"/>
			<path id="XMLID_243_" class="st0" d="M881.2,672.9c12,0,21.7,9.7,21.7,21.7s-9.7,21.7-21.7,21.7c-11.9,0-21.7-9.7-21.7-21.7
				S869.2,672.9,881.2,672.9z"/>
			<path id="XMLID_232_" class="st0" d="M413.3,723v52.7h0.1L413.3,723C413.4,723,413.4,723,413.3,723z M473.5,252
				c2.5,5,5.7,9.6,9.6,13.7c0,0,0,0,0,0C479.3,261.6,476,257,473.5,252z M515.3,219.5c0.9-0.8,2-1.4,3.2-1.8
				C517.3,218.1,516.2,218.7,515.3,219.5z M519.5,217.4c0.7-0.2,1.4-0.3,2.1-0.3C520.9,217.1,520.2,217.2,519.5,217.4z M551.4,407.1
				c8.9,19,20.9,36.4,35.5,51.6C572.4,443.4,560.4,426,551.4,407.1z M576.5,548.2v97.4c0,6.9-3.3,13.1-8.3,17.1
				c5.1-4,8.4-10.2,8.4-17.1L576.5,548.2L576.5,548.2z M568.2,726.4c5.1,4,8.3,10.2,8.3,17.1v32.2h0.1v-32.2
				C576.5,736.6,573.3,730.4,568.2,726.4z M579.3,353.8c-1.8-9.1-2.7-18.6-2.7-27.9v-43.6h-0.1v43.6c0,9.4,1,18.8,2.8,28.1l0.1,0.5
				L579.3,353.8z M589.4,385.8c-2.8-6.3-5.2-12.8-7.1-19.5C584.2,372.9,586.5,379.5,589.4,385.8z M596.9,468.2
				c-0.5-0.5-1-0.9-1.5-1.4c-0.5-0.4-1-0.9-1.4-1.3c1.5,1.4,3,2.8,4.5,4.1v-0.1C597.9,469.1,597.4,468.7,596.9,468.2z M614.7,424.9
				c1.1,1.3,2.3,2.6,3.5,3.8c1.1,1.1,2.2,2.3,3.4,3.4C619.3,429.7,617,427.4,614.7,424.9z M545.5,173.7L545.5,173.7
				c7.6-48.4,40.3-90.1,85.5-108.9v0C585.9,83.6,553.1,125.2,545.5,173.7z M634.3,443c-1.8-1.4-3.5-2.8-5.2-4.2
				C630.7,440.3,632.5,441.7,634.3,443c5.1,4,10.5,7.7,16.1,10.9C644.8,450.7,639.4,447.1,634.3,443z M671.5,141
				c0.8-1.4,1.4-2.8,1.9-4.3C672.9,138.2,672.3,139.6,671.5,141z M667,146.4c1.8-1.5,3.3-3.4,4.5-5.4
				C670.3,143,668.8,144.8,667,146.4z M667,146.4c-0.6,0.5-1.2,1-1.8,1.5C665.8,147.4,666.4,146.9,667,146.4z M675.6,26.2
				c2-5.1,6.1-9.1,9.1-9.7C681.7,17,677.6,21.1,675.6,26.2z M641.8,517.9v-19.5c0,0,0,0-0.1,0L641.8,517.9l76.2,80L641.8,517.9z
				 M766,509c9.6-2.7,19-6.3,28.2-10.6v0C785,502.7,775.6,506.3,766,509z M804.9,64.7v65.4c0,6.9-3.3,13.1-8.3,17.1
				c5.1-4,8.4-10.2,8.4-17.1L804.9,64.7C804.9,64.7,804.9,64.7,804.9,64.7z M855.5,43.3c1.8,1.2,3.5,2.5,5.2,3.7
				C859,45.7,857.3,44.5,855.5,43.3z M761.4-25.8c21.8,4.9,36.8,24.2,41.7,44c16.2,4.8,31.4,11.7,45.3,20.4
				c-13.9-8.7-29.1-15.6-45.2-20.4C798.2-1.7,783.2-21,761.4-25.8z M825.1,548.2L739.6,638v137.7h0.1V638L825.1,548.2L825.1,548.2z
				 M864.1,49.6c1.8,1.4,3.5,2.8,5.3,4.3C867.6,52.4,865.9,51,864.1,49.6z M869.4,53.9c1.7,1.5,3.4,3,5.1,4.5
				C872.8,56.8,871.1,55.3,869.4,53.9z M894.8,380.2c-2,6.6-4.3,13.1-6.9,19.4C890.6,393.3,892.9,386.8,894.8,380.2L894.8,380.2z
				 M898.9,85.3c-2.5-3.4-5.1-6.7-7.9-9.9C893.7,78.6,896.4,81.9,898.9,85.3z M895.2,727c1.7,1.5,3.2,3.2,4.4,5.1
				C898.4,730.2,896.9,728.5,895.2,727z M894.6,726.6c-1.6-1.3-3.3-2.3-5.2-3.1C891.3,724.3,893.1,725.3,894.6,726.6z M888.8,723.2
				c-0.7-0.3-1.4-0.5-2.2-0.7C887.3,722.7,888,722.9,888.8,723.2z M895.2,662.1c1.7-1.4,3.2-3.2,4.4-5.1
				C898.4,658.9,896.9,660.7,895.2,662.1z M894.6,662.6c-1.4,1.1-2.9,2-4.5,2.8C891.8,664.6,893.3,663.7,894.6,662.6z M903.3,91.5
				c3.2,4.7,6.1,9.5,8.9,14.4C909.5,101,906.5,96.2,903.3,91.5z M932.6,163.5c0.4,2.1,0.7,4.3,1,6.5
				C933.4,167.8,933,165.7,932.6,163.5z M932.3,161.4c-2.4-12.8-6.2-25.2-11.1-37.1C926.1,136.1,929.8,148.6,932.3,161.4z
				 M968.1,228c0-14.5-5.7-28.1-15.9-38.4c-5.1-5.1-11-9-17.6-11.8v0C954.8,186.2,968,206,968.1,228c-0.1,8-1.8,15.7-5,22.8
				C966.4,243.7,968.1,235.9,968.1,228z M952.8,265.7C952.8,265.7,952.8,265.8,952.8,265.7c9.9,12.5,15.2,27.8,15.2,43.8
				c0,22-10.1,41.8-26,54.8c15.9-13,26.1-32.7,26.1-54.8C968.1,293.6,962.7,278.2,952.8,265.7z M1063,808.3c0.8-1.4,1.4-2.8,1.9-4.3
				C1064.5,805.5,1063.8,806.9,1063,808.3z M1056.7,815.1c2.6-1.8,4.7-4.1,6.3-6.8C1061.4,811,1059.3,813.3,1056.7,815.1z"/>
		</g>
	</g>
</g>
</svg>
