<?xml version="1.0" encoding="utf-8"?>
<!-- Generator: Adobe Illustrator 19.0.0, SVG Export Plug-In . SVG Version: 6.00 Build 0)  -->
<svg version="1.1" id="Capa_1" xmlns="http://www.w3.org/2000/svg" xmlns:xlink="http://www.w3.org/1999/xlink" x="0px" y="0px"
	 viewBox="206 -116 1024 1024" style="enable-background:new 206 -116 1024 1024;" xml:space="preserve">
<style type="text/css">
	.st0{fill:#FFFFFF;}
</style>
<path id="XMLID_73_" class="st0" d="M1009.2,343.1h-36.5c-8.9-33.4-23.9-65.5-46.3-94.6c-69.2-89.2-162.7-63.6-218.5-48.4
	c-9.8,2.6-18.8,5-27,6.7c-13.9-36-32-122.1,76.8-184.9c12.7-7.3,17-23.5,9.7-36.2c-7.4-12.7-23.6-17-36.2-9.7
	c-43.5,25.1-71.6,54.5-89.1,84.9c-5.1-8.6-10.7-17-17.5-24.9C589.2-5,537.8-27.6,479.7-27.6c-14.6,0-26.5,11.9-26.5,26.5
	c0,58.1,22.6,109.5,63.5,144.9c30.2,26.1,67,40.2,103.6,40.3c0.9,5.6,2,11,3.2,16.3c-0.5-0.2-0.8-0.3-1.4-0.4
	c-55.9-15.2-149.3-40.9-218.5,48.4c-69.3,89.7-73.7,207.4-15.6,306.4h-67.2c-14.6,0-26.5,11.9-26.5,26.5v211.8
	c0,14.6,11.9,26.5,26.5,26.5h688.3c73,0,132.4-59.4,132.4-132.4V475.4C1141.6,402.4,1082.2,343.1,1009.2,343.1z M1009.2,396
	c43.8,0,79.4,35.6,79.4,79.4s-35.6,79.4-79.4,79.4H942c29.5-50.1,42-105,39-158.8H1009.2z M551.4,103.7
	c-22.2-19.2-36.9-45.5-42.6-75.7c30.2,5.7,56.5,20.3,75.7,42.6c15.4,17.6,24.7,39,27,60C590.5,128.5,569.1,119.1,551.4,103.7z
	 M445.6,280.9c47.5-61.4,108.6-44.6,162.7-29.8c17.1,4.7,31.7,7,45.9,7.9c3.4,1.6,7,2.9,10.9,2.9c3.8,0,7.5-1.2,11.1-2.9
	c14.2-1,28.7-3.2,45.7-7.9c54.1-14.8,115.2-31.6,162.7,29.8c75.6,97.8,45.3,206.3-6.1,274H451.7C400.3,487.2,370,378.7,445.6,280.9z
	 M1009.2,766.6h-26.5v-26.5c0-14.6-11.9-26.5-26.5-26.5s-26.5,11.9-26.5,26.5v26.5h-52.9v-79.4c0-14.6-11.9-26.5-26.5-26.5
	s-26.5,11.9-26.5,26.5v79.4h-52.9v-26.5c0-14.6-11.9-26.5-26.5-26.5S718,725.6,718,740.2v26.5h-52.9v-26.5
	c0-14.6-11.9-26.5-26.5-26.5s-26.5,11.9-26.5,26.5v26.5h-52.9v-79.4c0-14.6-11.9-26.5-26.5-26.5c-14.6,0-26.5,11.9-26.5,26.5v79.4
	h-52.9v-26.5c0-14.6-11.9-26.5-26.5-26.5s-26.5,11.9-26.5,26.5v26.5h-52.9V607.8h79.3h476.9h105.7c29.9,0,57.2-10.3,79.4-27.2v106.6
	C1088.6,731,1053,766.6,1009.2,766.6z"/>
</svg>
