<?xml version="1.0" encoding="utf-8"?>
<!-- Generator: Adobe Illustrator 19.0.0, SVG Export Plug-In . SVG Version: 6.00 Build 0)  -->
<svg version="1.1" id="Capa_1" xmlns="http://www.w3.org/2000/svg" xmlns:xlink="http://www.w3.org/1999/xlink" x="0px" y="0px"
	 viewBox="206 -116 1024 1024" style="enable-background:new 206 -116 1024 1024;" xml:space="preserve">
<style type="text/css">
	.st0{fill:#FFFFFF;}
</style>
<g id="XMLID_185_">
	<path id="XMLID_186_" class="st0" d="M1170.8,385.3c-1.3-13.3-5-26-10.9-37.9c-5.3-10.6-12.3-20.2-20.7-28.6L967.5,149.1
		C899.8,82.1,811,48.1,722,47.1c88.9,1.1,177.4,35,245,101.9l171.7,169.8c19.4,19.2,30.6,44.3,32,71.3
		C1171,388.5,1171,386.9,1170.8,385.3z M718.2,164.7c-127.5,0-231.3,103.8-231.3,231.3c0,127.5,103.8,231.3,231.3,231.3
		c127.6,0,231.3-103.8,231.3-231.3C949.5,268.5,845.8,164.7,718.2,164.7z M718.2,581.8c-102.5,0-185.8-83.4-185.8-185.8
		c0-102.5,83.4-185.8,185.8-185.8C820.7,210.2,904,293.5,904,396C904,498.5,820.7,581.8,718.2,581.8z M721.3,744.7
		c48.3-0.4,95.9-10.5,140.5-30c0.8-0.4,1.6-0.8,2.4-1.2c-26.8,12-55.2,20.7-84.8,25.9C760.1,742.7,740.6,744.5,721.3,744.7z
		 M718.2,349.5c-25.7,0-46.5,20.8-46.5,46.5c0,25.7,20.8,46.5,46.5,46.5c25.7,0,46.5-20.8,46.5-46.5
		C764.7,370.3,743.9,349.5,718.2,349.5z M718.2,497.6c-56,0-101.6-45.6-101.6-101.6c0-12.6-10.2-22.8-22.7-22.8
		c-12.6,0-22.8,10.2-22.8,22.8c0,81.1,66,147.1,147.1,147.1c12.6,0,22.8-10.2,22.8-22.7S730.8,497.6,718.2,497.6z M718.6,744.7
		c0.9,0,1.8,0,2.7,0c-1.1,0-2.2,0-3.3,0H718.6z M718.2,784.5c-12.6,0-22.7,10.2-22.7,22.7v56.5c0,12.6,10.2,22.7,22.7,22.7
		s22.8-10.2,22.8-22.7v-56.5C741,794.7,730.8,784.5,718.2,784.5z M718.2,497.6c-56,0-101.6-45.6-101.6-101.6
		c0-12.6-10.2-22.8-22.7-22.8c-12.6,0-22.8,10.2-22.8,22.8c0,81.1,66,147.1,147.1,147.1c12.6,0,22.8-10.2,22.8-22.7
		S730.8,497.6,718.2,497.6z M718.2,349.5c-25.7,0-46.5,20.8-46.5,46.5c0,25.7,20.8,46.5,46.5,46.5c25.7,0,46.5-20.8,46.5-46.5
		C764.7,370.3,743.9,349.5,718.2,349.5z M718.2,497.6c-56,0-101.6-45.6-101.6-101.6c0-12.6-10.2-22.8-22.7-22.8
		c-12.6,0-22.8,10.2-22.8,22.8c0,81.1,66,147.1,147.1,147.1c12.6,0,22.8-10.2,22.8-22.7S730.8,497.6,718.2,497.6z M718.2,164.7
		c-127.5,0-231.3,103.8-231.3,231.3c0,127.5,103.8,231.3,231.3,231.3c127.6,0,231.3-103.8,231.3-231.3
		C949.5,268.5,845.8,164.7,718.2,164.7z M718.2,581.8c-102.5,0-185.8-83.4-185.8-185.8c0-102.5,83.4-185.8,185.8-185.8
		C820.7,210.2,904,293.5,904,396C904,498.5,820.7,581.8,718.2,581.8z M718.2,349.5c-25.7,0-46.5,20.8-46.5,46.5
		c0,25.7,20.8,46.5,46.5,46.5c25.7,0,46.5-20.8,46.5-46.5C764.7,370.3,743.9,349.5,718.2,349.5z M718.2,497.6
		c-56,0-101.6-45.6-101.6-101.6c0-12.6-10.2-22.8-22.7-22.8c-12.6,0-22.8,10.2-22.8,22.8c0,81.1,66,147.1,147.1,147.1
		c12.6,0,22.8-10.2,22.8-22.7S730.8,497.6,718.2,497.6z M427.9,674.3c-8.9-8.9-23.3-8.9-32.2,0l-39.9,39.9c-8.9,8.9-8.9,23.3,0,32.2
		c4.4,4.4,10.3,6.7,16.1,6.7c5.8,0,11.6-2.2,16.1-6.7l39.9-39.9C436.8,697.6,436.8,683.2,427.9,674.3z M718.2-94.4
		c-12.6,0-22.7,10.2-22.7,22.7v56.5c0,12.6,10.2,22.7,22.7,22.7S741-2.7,741-15.2v-56.5C741-84.2,730.8-94.4,718.2-94.4z
		 M427.9,85.5L388,45.6c-8.9-8.9-23.3-8.9-32.2,0c-8.9,8.9-8.9,23.3,0,32.2l39.9,39.9c4.4,4.4,10.3,6.7,16.1,6.7
		c5.8,0,11.6-2.2,16.1-6.7C436.8,108.8,436.8,94.4,427.9,85.5z M1080.6,45.6c-8.9-8.9-23.3-8.9-32.2,0l-39.9,39.9
		c-8.9,8.9-8.9,23.3,0,32.2c4.4,4.4,10.3,6.7,16.1,6.7c5.8,0,11.6-2.2,16.1-6.7l39.9-39.9C1089.4,68.9,1089.5,54.5,1080.6,45.6z
		 M718.2,349.5c-25.7,0-46.5,20.8-46.5,46.5c0,25.7,20.8,46.5,46.5,46.5c25.7,0,46.5-20.8,46.5-46.5
		C764.7,370.3,743.9,349.5,718.2,349.5z M1080.6,714.3l-39.9-39.9c-4.4-4.4-10.3-6.7-16.1-6.7c-5.8,0-11.7,2.2-16.1,6.7
		c-8.9,8.9-8.9,23.3,0,32.2l39.9,39.9c8.9,8.9,23.3,8.9,32.2,0C1089.5,737.5,1089.4,723.1,1080.6,714.3z"/>
	<path id="XMLID_212_" class="st0" d="M1170.8,390.1c-1.4-27-12.7-52.2-32-71.3L967.1,149.1C899.4,82.2,810.9,48.2,722,47.1
		c-2.7,0-5.4,0-8.1,0c-88.9,1.1-177.4,35-245.1,101.9L297.3,318.8c-19.4,19.2-30.6,44.3-32,71.3c-0.1,1.9-0.2,3.9-0.2,5.9
		c0,29.2,11.4,56.6,32.2,77.2l171.6,169.8c30.1,29.7,64.8,53.5,102.9,70.6c26.8,12,55.2,20.7,84.8,25.9c19.4,3.4,38.8,5.1,58.2,5.4
		c1.1,0,2.2,0,3.3,0c1.1,0,2.2,0,3.3,0c19.4-0.2,38.8-2,58.2-5.4c29.6-5.1,58-13.8,84.8-25.9c38.1-17.1,72.8-40.9,102.9-70.6
		l171.6-169.8c20.8-20.5,32.2-47.9,32.2-77.2C1170.9,394,1170.9,392.1,1170.8,390.1z M1106.7,440.8L935.1,610.6
		C876.9,668.1,798,698.8,718,699c-80-0.2-158.9-30.9-217.1-88.5L329.3,440.8c-12-11.9-18.7-27.8-18.7-44.8c0-17,6.6-32.9,18.7-44.8
		l171.6-169.8c59-58.3,136.2-87.9,213.6-88.9c2.3,0,4.6,0,7,0c77.4,0.9,154.6,30.5,213.6,88.9l171.6,169.8
		c12.1,11.9,18.7,27.8,18.7,44.8C1125.4,413,1118.8,428.9,1106.7,440.8z"/>
</g>
</svg>
