<?xml version="1.0" encoding="utf-8"?>
<!-- Generator: Adobe Illustrator 19.0.0, SVG Export Plug-In . SVG Version: 6.00 Build 0)  -->
<svg version="1.1" id="Capa_1" xmlns="http://www.w3.org/2000/svg" xmlns:xlink="http://www.w3.org/1999/xlink" x="0px" y="0px"
	 viewBox="206 -116 1024 1024" style="enable-background:new 206 -116 1024 1024;" xml:space="preserve">
<style type="text/css">
	.st0{fill:#FFFFFF;}
</style>
<g>
	<path id="XMLID_57_" class="st0" d="M790.3,322.1c0,63.7,0,126.4,0,190.2c5.3,0,10.5,0,15.7,0c18.5,0,37-0.2,55.5,0
		c35.7,0.4,64.7,25.6,70.3,60.8c5.4,34.2-14.4,66.4-48.7,77.3c-27.9,8.9-54.8,19.5-76.8,39.3c-10.7,9.7-20.7,20.4-29.9,31.5
		c-32.3,38.7-82.5,38.7-114.5-0.1c-7.9-9.5-16.3-18.7-25.5-27.1c-20.8-19-45.1-31.9-72.3-39.3c-22.9-6.2-41.6-18-52.3-40
		c-22.7-46.3,10.6-101.2,62.3-102.3c24-0.5,48-0.1,72.6-0.1c0-63.4,0-126.3,0-188.7c-19.3,0-38.6-1.7-57.5,0.5
		c-21.2,2.5-37.5,24.9-36.9,46.1c0.6,22.5,17.3,42,38.9,45.6c3.4,0.6,6.8,1,10.2,1.3c13.5,1.3,22.6,11.7,22.1,25.1
		c-0.5,12.7-10.7,22.2-24,22.4c-59.5,0.9-106.2-56.6-92.7-114.8c1.4-5.9,0.2-9.5-3.6-14.1c-19.8-23.8-26.5-51.2-20.1-81.4
		c1.2-5.6,0.2-9.1-3.4-13.4c-23.2-27.8-29.2-59.6-17.1-93.4c12.2-34.1,36.9-56.6,73.1-61.2c26.3-3.4,53.2-1.7,79.8-2.1
		c10-0.2,20.1-0.2,30.1,0.1c4,0.1,6-1.3,7.7-4.9C666.3,52.2,688,37.1,718.2,37c30.6-0.1,52.7,14.7,65.5,42.6c2,4.3,4.6,4.8,8.6,4.8
		c30.6-0.1,61.3-0.5,91.9,0c40.9,0.5,71.1,19.7,87.6,56.7c16.1,36.1,10,70.5-15.3,101.3c-2.1,2.6-3.3,7.2-2.7,10.5
		c6.6,31.6,0,59.7-21,84.1c-3.4,3.9-3.8,7.3-2.7,12.1c13.7,58.2-32.2,116-91.8,115.6c-13.8-0.1-24.3-9.6-24.8-22.4
		c-0.5-13.8,8.7-23.9,22.9-25.2c27.3-2.4,43.5-16.6,47.4-41.3c3.8-24.2-13.2-48.1-37.4-52.3c-3.1-0.5-6.3-1.3-9.4-1.3
		C821.8,322,806.5,322.1,790.3,322.1z M611.9,559.8c-11.4,0-22.7-0.1-34.1,0c-12.1,0.2-21,6.5-24.2,16.7
		c-4.4,13.9,3.3,26.2,20.4,30.8c50.9,13.8,92.1,42.1,125.1,83c12.7,15.7,26.3,15.8,39.7,0.7c6.1-6.9,11.7-14.4,18.1-21
		c29.7-30.5,64.9-51.7,105.9-63.6c6.1-1.8,12.4-5.1,16.8-9.5c6.5-6.5,6.9-15.1,2.8-23.5c-4.7-9.5-12.9-13.6-23.2-13.7
		c-22.5-0.1-44.9,0.1-67.4-0.1c-4.4,0-6.4,1.4-8.3,5.3c-13,27.3-34.8,42.2-65.1,42.1c-30.2-0.1-52.1-14.8-64.9-42.3
		c-1.9-4-4.1-5.3-8.4-5.2C634.1,560,623,559.8,611.9,559.8z M646.9,131.9c-27.6,0-54.3-0.1-80.9,0.1c-7.6,0-15.4,0.2-22.9,1.4
		c-31.7,5.2-48.6,43.1-30.9,70.2c2.9-2.2,5.9-4.4,8.8-6.5c15-11.2,32.1-17.2,50.7-17.6c20.6-0.5,41.2-0.1,61.8-0.2
		c4.4,0,8.8,0,13.4,0C646.9,163.1,646.9,147.9,646.9,131.9z M925.1,203.5c5.6-9.2,8.1-19.2,6.9-27.5c-4-27.9-22.3-43.9-50.6-44.1
		c-23.8-0.1-47.5,0-71.3,0c-6.5,0-13,0-19.5,0c0,16.3,0,31.7,0,47c1.1,0.2,1.6,0.5,2.1,0.5c23.5,0.1,47,0.1,70.5,0.2
		c17.3,0.1,33.2,5,47.9,14C916,196.4,920.4,200.1,925.1,203.5z M647,227c-16.6,0-32.3-0.2-48.1,0.1c-10.8,0.1-21.7-0.2-32.3,1.5
		c-31.7,5.2-48.5,43.9-30.7,69.6c0.7-0.3,1.5-0.5,2.1-1c20.7-17.8,45-24,71.9-22.8c12.3,0.6,24.6,0.1,37.2,0.1
		C647,258.4,647,243.2,647,227z M900.8,299.2c18.5-27.5,1.6-66.5-31.1-70.4c-24.5-2.9-49.5-1.4-74.2-1.8c-1.7,0-3.5,0.4-5,0.6
		c0,15.9,0,31.3,0,47.1C829.5,275.1,869.6,267.8,900.8,299.2z M695,465.1c0,24.5-0.5,48.4,0.2,72.3c0.4,12.7,11.7,22.4,23.5,22.3
		c11.7-0.1,22.7-9.2,23.2-21.7c0.8-24.2,0.2-48.4,0.2-73C726.4,465.1,711.2,465.1,695,465.1z M695.4,179.7c0,16.2,0,31.6,0,46.8
		c15.8,0,31,0,46.5,0c0-15.8,0-31.2,0-46.8C726.2,179.7,711,179.7,695.4,179.7z M695.3,274.9c0,16.2,0,31.3,0,46.6
		c15.8,0,31.2,0,46.5,0c0-15.9,0-31.3,0-46.6C726.1,274.9,710.9,274.9,695.3,274.9z M695.2,416.6c16,0,31.4,0,46.5,0
		c0-15.9,0-31.3,0-46.6c-15.8,0-31,0-46.5,0C695.2,385.6,695.2,400.8,695.2,416.6z M742.3,131.6c0-8.5,0.4-16.1-0.1-23.7
		c-0.8-12.8-10.5-22.6-22.5-23.4c-11.5-0.8-22.7,8-24.2,20.4c-1.1,8.7-0.2,17.6-0.2,26.7C711.1,131.6,726.3,131.6,742.3,131.6z"/>
	<path id="XMLID_51_" class="st0" d="M1070.4,21.2c12.3,0,22.3,10,22.3,22.3v704.9c0,12.3-10,22.3-22.3,22.3H365.6
		c-12.3,0-22.3-10-22.3-22.3V43.6c0-12.3,10-22.3,22.3-22.3H1070.4 M1070.4-27.6H365.6c-39.3,0-71.1,31.9-71.1,71.1v704.9
		c0,39.3,31.9,71.1,71.1,71.1h704.9c39.3,0,71.1-31.9,71.1-71.1V43.6C1141.6,4.3,1109.7-27.6,1070.4-27.6L1070.4-27.6z"/>
</g>
</svg>
